<?xml version="1.0" encoding="UTF-8"?>
<svg width="1377px" height="551px" viewBox="0 0 1377 551" version="1.1" xmlns="http://www.w3.org/2000/svg" xmlns:xlink="http://www.w3.org/1999/xlink">
    <title>backgroundword</title>
    <defs>
        <filter color-interpolation-filters="auto" id="filter-1">
            <feColorMatrix in="SourceGraphic" type="matrix" values="0 0 0 0 0.000000 0 0 0 0 0.000000 0 0 0 0 0.000000 0 0 0 1.000000 0"></feColorMatrix>
        </filter>
        <filter color-interpolation-filters="auto" id="filter-2">
            <feColorMatrix in="SourceGraphic" type="matrix" values="0 0 0 0 1.000000 0 0 0 0 1.000000 0 0 0 0 1.000000 0 0 0 1.000000 0"></feColorMatrix>
        </filter>
    </defs>
    <g id="页面-1" stroke="none" stroke-width="1" fill="none" fill-rule="evenodd">
        <g id="homepage" transform="translate(-31.000000, -185.000000)">
            <g id="编组-2" transform="translate(31.000000, 185.000000)">
                <g filter="url(#filter-1)" id="编组-5备份">
                    <g transform="translate(128.718696, 2.598121)" filter="url(#filter-2)" id="编组">
                        <g>
                            <path d="M519.653445,38.9773856 C522.993683,38.9773856 526.333922,39.7782051 530.743037,43.7823025 L530.743037,43.7823025 L585.52295,92.8992306 L585.52295,40.4455547 L610.775154,40.4455547 L610.775154,114.387887 C610.775154,126.266709 603.560238,131.205096 595.543666,131.205096 C592.069818,131.205096 588.729579,130.404276 584.454074,126.400179 L584.454074,126.400179 L529.674161,77.2832508 L529.674161,129.736927 L504.555566,129.736927 L504.555566,55.6611248 C504.555566,43.7823025 511.770482,38.9773856 519.653445,38.9773856 Z M93.714,39.26 L93.7145692,129.736927 L79.8350085,129.736927 C70.7394347,129.736927 63.3459903,122.449245 63.1752796,113.394485 L63.1722625,113.074181 L63.172,39.26 L93.714,39.26 Z M715.833439,39.26 L715.834008,129.736927 L701.954448,129.736927 C692.858874,129.736927 685.46543,122.449245 685.294719,113.394485 L685.291702,113.074181 L685.291439,39.26 L715.833439,39.26 Z M202.197168,38.9773856 C210.48096,38.9773856 215.958951,43.3818928 219.833628,48.9876291 L219.833628,48.9876291 L275.682418,129.736927 L171.734192,129.736927 L188.435385,106.780102 L213.014281,106.780694 C217.830243,106.784643 223.063494,106.81492 226.781324,107.047041 C224.376353,103.843764 220.635285,98.3714971 217.695875,94.1004599 L217.695875,94.1004599 L201.66273,70.4762852 L159.709333,129.736927 L126.974995,129.736927 L184.293489,48.9876291 C188.034557,43.7823025 193.512548,38.9773856 202.197168,38.9773856 Z M313.226699,40.4455547 L313.226699,106.780102 L382.436443,106.780102 L364.532764,129.736927 L302.23227,129.736927 C293.029689,129.736927 285.569524,122.276761 285.569524,113.074181 L285.569524,113.074181 L285.569524,40.4455547 L313.226699,40.4455547 Z M419.445491,106.744555 L419.446287,106.780102 L495.470117,106.780102 L477.700048,129.736927 L408.318248,129.736927 C399.222674,129.736927 391.82923,122.449245 391.658519,113.394485 L391.655502,113.074181 L391.655491,106.744555 L419.445491,106.744555 Z M803.439268,106.734555 L803.440116,106.780102 L879.463947,106.780102 L861.693877,129.736927 L792.312077,129.736927 C783.216503,129.736927 775.823059,122.449245 775.652348,113.394485 L775.649331,113.074181 L775.649268,106.734555 L803.439268,106.734555 Z M1002.65195,40.4455547 L984.881877,63.6693196 L939.98907,63.6693196 C925.024801,63.6693196 913.8016,72.6118038 913.8016,85.4249155 C913.8016,97.9777608 924.670509,106.60619 939.537343,106.777504 L939.98907,106.780102 L1002.65195,106.780102 L984.881877,129.736927 L939.98907,129.736927 C908.991656,129.736927 886.144424,110.116849 886.144424,84.2236863 C886.144424,58.3251843 908.536996,40.7987695 939.061608,40.450831 L939.98907,40.4455547 L1002.65195,40.4455547 Z M1040.06262,40.4455547 L1040.06262,72.0779242 L1093.23922,72.0779242 L1093.23922,40.4455547 L1120.76278,40.4455547 L1120.76278,129.736927 L1109.90196,129.736927 C1100.80639,129.736927 1093.41295,122.449245 1093.24223,113.394485 L1093.23922,113.074181 L1093.23922,95.3016891 L1040.06262,95.3016891 L1040.06262,129.736927 L1028.93458,129.736927 C1019.83901,129.736927 1012.44556,122.449245 1012.27485,113.394485 L1012.27183,113.074181 L1012.27183,40.4455547 L1040.06262,40.4455547 Z M490.259345,74.3469127 L474.359809,94.6343395 L420.456491,94.6335547 L420.45666,94.6296178 L391.655491,94.6295547 L391.655491,74.3485547 L420.45666,74.3491419 L420.456491,74.3465547 L490.259345,74.3469127 Z M874.253175,74.3469127 L858.353639,94.6343395 L806.402268,94.6335547 L806.40233,94.5924659 L775.649268,94.5915547 L775.649268,74.3685547 L806.40233,74.3694434 L806.402268,74.3465547 L874.253175,74.3469127 Z M879.196728,40.4455547 L861.293049,63.6693196 L803.440116,63.6693196 L803.439268,63.6895547 L775.649268,63.6895547 L775.649331,57.1083007 C775.649331,48.0127269 782.937013,40.6192825 791.991773,40.4485717 L792.312077,40.4455547 L879.196728,40.4455547 Z M495.202898,40.4455547 L477.299219,63.6693196 L391.655491,63.6695547 L391.655502,57.1083007 C391.655502,48.0127269 398.943184,40.6192825 407.997943,40.4485717 L408.318248,40.4455547 L495.202898,40.4455547 Z M163.79695,0 L142.7952,28.4874846 L93.7145692,28.4874846 L93.714,28.498 L63.172,28.498 L63.1722625,28.4874846 L0,28.4874846 L21.0017502,0 L163.79695,0 Z M785.91639,0 L764.914639,28.4874846 L715.834008,28.4874846 L715.833439,28.498 L685.291439,28.498 L685.291702,28.4874846 L622.119439,28.4874846 L643.121189,0 L785.91639,0 Z" id="形状结合" stroke="#000000" stroke-width="3.64" fill-rule="nonzero"></path>
                        </g>
                    </g>
                </g>
                <text id="YOUR-EXPERIENCES-DES" opacity="0.888323103" font-family="Avenir-Black, Avenir" font-size="136.5" font-weight="700" fill="#000000">
                    <tspan x="4.146526" y="316.135164">YOUR EXPERIENCES</tspan>
                    <tspan x="105.156526" y="503.135164">DESERVE BETTER</tspan>
                </text>
            </g>
        </g>
    </g>
</svg>