<svg viewBox="0 0 20 20" xmlns="http://www.w3.org/2000/svg"><g fill="#FFF"><path d="M15.657 2.929a1 1 0 1 1 1.414 1.414L14.95 6.464a1 1 0 0 1-1.414-1.414l2.12-2.121z" opacity=".3"/><path d="M19 9a1 1 0 0 1 0 2h-3a1 1 0 0 1 0-2h3z" opacity=".4"/><path d="M17.071 15.657a1 1 0 1 1-1.414 1.414l-2.121-2.121a1 1 0 0 1 1.414-1.414l2.121 2.12z" opacity=".5"/><path d="M9 16a1 1 0 0 1 2 0v3a1 1 0 0 1-2 0v-3z" opacity=".6"/><path d="M5.05 13.536a1 1 0 1 1 1.414 1.414l-2.12 2.121a1 1 0 0 1-1.415-1.414l2.121-2.121z" opacity=".7"/><path d="M4 9a1 1 0 1 1 0 2H1a1 1 0 0 1 0-2h3z" opacity=".8"/><path d="M6.464 5.05A1 1 0 1 1 5.05 6.464l-2.12-2.12a1 1 0 1 1 1.414-1.415l2.12 2.121z" opacity=".9"/><path d="M9 1a1 1 0 1 1 2 0v3a1 1 0 0 1-2 0V1z"/></g></svg>