<?xml version="1.0" encoding="UTF-8"?>
<svg width="211px" height="35px" viewBox="0 0 211 35" version="1.1" xmlns="http://www.w3.org/2000/svg" xmlns:xlink="http://www.w3.org/1999/xlink">
    <title>编组 3备份 5@3x</title>
    <defs>
        <linearGradient x1="-6.9388939e-15%" y1="16.9061186%" x2="100%" y2="90.2707609%" id="linearGradient-1">
            <stop stop-color="#605FFF" offset="0%"></stop>
            <stop stop-color="#FF46CB" offset="100%"></stop>
        </linearGradient>
        <filter color-interpolation-filters="auto" id="filter-2">
            <feColorMatrix in="SourceGraphic" type="matrix" values="0 0 0 0 0.200000 0 0 0 0 0.200000 0 0 0 0 0.200000 0 0 0 1.000000 0"></feColorMatrix>
        </filter>
        <filter color-interpolation-filters="auto" id="filter-3">
            <feColorMatrix in="SourceGraphic" type="matrix" values="0 0 0 0 1.000000 0 0 0 0 1.000000 0 0 0 0 1.000000 0 0 0 1.000000 0"></feColorMatrix>
        </filter>
    </defs>
    <g id="页面-1" stroke="none" stroke-width="1" fill="none" fill-rule="evenodd">
        <g id="编组-3备份-5">
            <g id="编组-30">
                <path d="M38.9995617,1.75711659e-13 C35.4279626,4.90624738 33.3195095,10.9556612 33.3195095,17.4998695 C33.3195095,24.0441077 35.4279818,30.0935469 38.9996106,34.9998062 L5.70553819,35.0001726 C2.1184855,30.0973903 0,24.0467192 0,17.4998783 C0,10.9534732 2.11820343,4.9031719 5.70482177,0.000563210158 L38.9995617,1.75711659e-13 Z M19.587,14.447 L15.484,14.447 L15.484833,24.756938 L15.4900078,24.9105118 C15.568928,26.0776912 16.5407031,27 17.727895,27 L17.727895,27 L19.5870507,27 L19.587,14.447 Z M29,9 L9.82080041,9 L7,12.9524192 L15.484833,12.9524192 L15.484,12.954 L19.587,12.954 L19.5870507,12.9524192 L26.1791996,12.9524192 L29,9 Z" id="形状结合" fill="url(#linearGradient-1)"></path>
                <g id="T备份-2" transform="translate(4.000000, 6.999398)"></g>
            </g>
            <g filter="url(#filter-2)" id="编组-5备份">
                <g transform="translate(40.000000, 7.999398)" filter="url(#filter-3)" id="编组">
                    <g>
                        <g id="T" fill="#FFFFFF" fill-rule="nonzero">
                            <path d="M14.298,5.984 L14.2984685,19.7762024 L12.1816406,19.7762024 C10.7770953,19.7762024 9.63848644,18.6375935 9.63848644,17.2330483 L9.63848644,17.2330483 L9.638,5.984 L14.298,5.984 Z M24.9912639,0 L21.786929,4.34243571 L14.2984685,4.34243571 L14.298,4.344 L9.638,4.344 L9.63848644,4.34243571 L0,4.34243571 L3.20433488,0 L24.9912639,0 Z" id="形状结合"></path>
                        </g>
                        <g id="T备份" transform="translate(94.919662, 0.000000)" fill="#FFFFFF" fill-rule="nonzero">
                            <path d="M14.298,5.984 L14.2984685,19.7762024 L12.1816406,19.7762024 C10.7770953,19.7762024 9.63848644,18.6375935 9.63848644,17.2330483 L9.63848644,17.2330483 L9.638,5.984 L14.298,5.984 Z M24.9912639,0 L21.786929,4.34243571 L14.2984685,4.34243571 L14.298,4.344 L9.638,4.344 L9.63848644,4.34243571 L0,4.34243571 L3.20433488,0 L24.9912639,0 Z" id="形状结合"></path>
                        </g>
                        <path d="M42.062151,19.7762024 L33.541041,7.46733636 C32.9498635,6.61283657 32.1140608,5.94144388 30.8501641,5.94144388 C29.5251111,5.94144388 28.6893085,6.67387227 28.1185164,7.46733636 L19.3731666,19.7762024 L24.3675971,19.7762024 L30.7686224,10.7429189 L33.2148741,14.3440252 C33.6633535,14.9950726 34.2341456,15.8292272 34.6010833,16.3175128 C33.9487496,16.2768223 32.9906343,16.2768223 32.1752171,16.2768223 L28.7504647,16.2768223 L26.2022859,19.7762024 L42.062151,19.7762024 Z" id="路径" fill="#000000" fill-rule="nonzero"></path>
                        <path d="M137.062151,19.7762024 L128.541041,7.46733636 C127.949863,6.61283657 127.114061,5.94144388 125.850164,5.94144388 C124.525111,5.94144388 123.689308,6.67387227 123.118516,7.46733636 L114.373167,19.7762024 L119.367597,19.7762024 L125.768622,10.7429189 L128.214874,14.3440252 C128.663354,14.9950726 129.234146,15.8292272 129.601083,16.3175128 C128.94875,16.2768223 127.990634,16.2768223 127.175217,16.2768223 L123.750465,16.2768223 L121.202286,19.7762024 L137.062151,19.7762024 Z" id="路径" fill="#000000" fill-rule="nonzero"></path>
                        <path d="M47.790457,16.2768223 L47.790457,6.16524144 L43.5706728,6.16524144 L43.5706728,17.2330483 C43.5706728,18.6375935 44.7092817,19.7762024 46.113827,19.7762024 L55.6184624,19.7762024 L55.6184624,19.7762024 L58.3501101,16.2768223 L47.790457,16.2768223 Z" id="路径" fill="#000000" fill-rule="nonzero"></path>
                        <path d="M142.790457,16.2768223 L142.790457,6.16524144 L138.570673,6.16524144 L138.570673,17.2330483 C138.570673,18.6375935 139.709282,19.7762024 141.113827,19.7762024 L150.618462,19.7762024 L150.618462,19.7762024 L153.35011,16.2768223 L142.790457,16.2768223 Z" id="路径" fill="#000000" fill-rule="nonzero"></path>
                        <path d="M63.9965643,16.2712414 L63.9968744,16.2768223 L75.5961844,16.2768223 L72.8849222,19.7762024 L62.2998589,19.7762024 C60.8953137,19.7762024 59.7567048,18.6375935 59.7567048,17.2330483 L59.7567048,17.2330483 L59.7565643,16.2712414 L63.9965643,16.2712414 Z M74.8011526,11.3329307 L72.3752864,14.4254061 L64.1505643,14.4252414 L64.1510318,14.4246864 L59.7565643,14.4242414 L59.7565643,11.3332414 L64.1510318,11.3332705 L64.1505643,11.3322414 L74.8011526,11.3329307 Z M75.5554136,6.16524144 L72.8237659,9.70531201 L59.7565643,9.70524144 L59.7567048,8.70839559 C59.7567048,7.36003215 60.8060468,6.25675565 62.1326459,6.17065091 L62.2998589,6.16524144 L75.5554136,6.16524144 Z" id="形状结合" fill="#FFFFFF" fill-rule="nonzero"></path>
                        <path d="M63.9965643,16.2712414 L63.9968744,16.2768223 L75.5961844,16.2768223 L72.8849222,19.7762024 L62.2998589,19.7762024 C60.8953137,19.7762024 59.7567048,18.6375935 59.7567048,17.2330483 L59.7567048,17.2330483 L59.7565643,16.2712414 L63.9965643,16.2712414 Z M74.8011526,11.3329307 L72.3752864,14.4254061 L64.1505643,14.4252414 L64.1510318,14.4246864 L59.7565643,14.4242414 L59.7565643,11.3332414 L64.1510318,11.3332705 L64.1505643,11.3322414 L74.8011526,11.3329307 Z M75.5554136,6.16524144 L72.8237659,9.70531201 L59.7565643,9.70524144 L59.7567048,8.70839559 C59.7567048,7.36003215 60.8060468,6.25675565 62.1326459,6.17065091 L62.2998589,6.16524144 L75.5554136,6.16524144 Z" id="形状结合" fill="#FFFFFF" fill-rule="nonzero"></path>
                        <path d="M158.996564,16.2712414 L158.996874,16.2768223 L170.596184,16.2768223 L167.884922,19.7762024 L157.299859,19.7762024 C155.895314,19.7762024 154.756705,18.6375935 154.756705,17.2330483 L154.756705,17.2330483 L154.756564,16.2712414 L158.996564,16.2712414 Z M169.801153,11.3329307 L167.375286,14.4254061 L159.150564,14.4252414 L159.151032,14.4246864 L154.756564,14.4242414 L154.756564,11.3332414 L159.151032,11.3332705 L159.150564,11.3322414 L169.801153,11.3329307 Z M170.555414,6.16524144 L167.823766,9.70531201 L154.756564,9.70524144 L154.756705,8.70839559 C154.756705,7.36003215 155.806047,6.25675565 157.132646,6.17065091 L157.299859,6.16524144 L170.555414,6.16524144 Z" id="形状结合备份" fill="#FFFFFF" fill-rule="nonzero"></path>
                        <rect id="矩形备份-4" fill="#000000" x="154.70521" y="12.8610484" width="4.45931296" height="3.81473122"></rect>
                        <path d="M90.864872,20 C92.0879979,20 93.1888111,19.2472264 93.1888111,17.4365006 L93.1888111,6.16524144 L89.3359647,6.16524144 L89.3359647,14.1609181 L80.9779381,6.67387227 C80.3052189,6.06351527 79.7955832,5.94144388 79.2859474,5.94144388 C78.083207,5.94144388 76.9823937,6.67387227 76.9823937,8.48459802 L76.9823937,19.7762024 L80.8148547,19.7762024 L80.8148547,11.7805258 L89.1728813,19.2675716 C89.825215,19.8779286 90.3348508,20 90.864872,20 Z" id="路径" fill="#000000" fill-rule="nonzero"></path>
                        <rect id="矩形备份-4" fill="#000000" x="59.70521" y="12.8610484" width="4.45931296" height="3.81473122"></rect>
                    </g>
                </g>
            </g>
        </g>
    </g>
</svg>