<?xml version="1.0" encoding="UTF-8"?>
<svg width="296px" height="207px" viewBox="0 0 296 207" version="1.1" xmlns="http://www.w3.org/2000/svg" xmlns:xlink="http://www.w3.org/1999/xlink">
    <title>编组 20@2x</title>
    <defs>
        <rect id="path-1" x="0" y="134" width="286" height="62" rx="10"></rect>
        <filter x="-1.9%" y="-8.9%" width="107.3%" height="135.5%" filterUnits="objectBoundingBox" id="filter-2">
            <feOffset dx="10" dy="11" in="SourceAlpha" result="shadowOffsetOuter1"></feOffset>
            <feColorMatrix values="0 0 0 0 0.0525983415   0 0 0 0 0.0525983415   0 0 0 0 0.0634624094  0 0 0 0.126065341 0" type="matrix" in="shadowOffsetOuter1"></feColorMatrix>
        </filter>
    </defs>
    <g id="页面-1" stroke="none" stroke-width="1" fill="none" fill-rule="evenodd">
        <g id="匹配" transform="translate(-574.000000, -191.000000)">
            <g id="编组-20" transform="translate(574.000000, 191.000000)">
                <g id="矩形">
                    <use fill="black" fill-opacity="1" filter="url(#filter-2)" xlink:href="#path-1"></use>
                    <use fill="#FFFFFF" fill-rule="evenodd" xlink:href="#path-1"></use>
                </g>
                <text id="MATCH-TO-EARN" font-family="Satoshi-Black, Satoshi" font-size="26" font-weight="800" fill="#000000">
                    <tspan x="32" y="177">MATCH TO EARN</tspan>
                </text>
                <g id="游戏手柄2" transform="translate(91.000000, 0.000000)" fill-rule="nonzero">
                    <polygon id="路径" fill="#DDDDED" points="46 89 64 89 64 116 46 116"></polygon>
                    <path d="M63.5896039,120 L45.4103961,120 C44.0791711,120 43,118.954471 43,117.664745 L43,90.335255 C43,89.0455293 44.0791711,88 45.4103961,88 L63.5896039,88 C64.2288807,88 64.8419744,88.2460351 65.2940113,88.6839804 C65.7460483,89.1219256 66,89.7159069 66,90.335255 L66,117.664745 C66,118.284093 65.7460483,118.878074 65.2940113,119.31602 C64.8419744,119.753965 64.2288807,120 63.5896039,120 L63.5896039,120 Z M47.8207923,115.32949 L61.1792077,115.32949 L61.1792077,92.6705101 L47.8207923,92.6705101 L47.8207923,115.32949 Z" id="形状" fill="#6E6E96"></path>
                    <polygon id="路径" fill="#FFFFFF" points="48 89 55 89 55 116 48 116"></polygon>
                    <path d="M55.1344022,3.34569548 C55.1344022,3.34569548 35.3681523,-4.02278496 29.1732261,15.7247198 C22.9782999,35.4727914 43.3338675,59.3462601 43.3338675,90 L68.7040244,90 C68.7051588,90 84.6360222,16.9039714 55.1344022,3.34569548 Z" id="路径" fill="#FF6670"></path>
                    <polygon id="路径" fill="#6E6E96" opacity="0.25" points="46 93 64 93 64 100 46 100"></polygon>
                    <path d="M108.848579,129.148925 C109.546668,131.817309 107.763779,134 104.884371,134 L9.11504229,134 C6.2367505,134 4.45330335,131.817309 5.1513923,129.148925 L7.3226668,120.850542 C8.02075576,118.182691 10.9464797,116 13.8247715,116 L100.1752,116 C103.053491,116 105.978657,118.182691 106.676746,120.850542 L108.848579,129.148925 Z" id="路径" fill="#C5C5D4"></path>
                    <path d="M83.8439984,129.148679 C84.5627838,131.817439 82.7285033,134 79.7655231,134 L18.2335941,134 C15.2734846,134 13.4374817,131.817439 14.1556929,129.148679 L16.3901279,120.850255 C17.1083391,118.182561 20.1183963,116 23.0796541,116 L74.9206114,116 C77.8824433,116 80.8919264,118.182561 81.6107117,120.850255 L83.8439984,129.148679 L83.8439984,129.148679 Z" id="路径" fill="#D3D3E3"></path>
                    <path d="M63.8447086,129.149068 C64.5602217,131.817374 62.7342917,134 59.7848004,134 L34.2149221,134 C31.2671452,134 29.4400721,131.817374 30.1550139,129.149068 L32.3798481,120.850398 C33.0942183,118.182626 36.0905723,116 39.0377776,116 L54.9619448,116 C57.9102931,116 60.9055041,118.182626 61.6210173,120.850398 L63.8447086,129.149068 Z" id="路径" fill="#EDEDFF" opacity="0.61"></path>
                    <path d="M102.623397,136 L6.37572706,136 C4.30185657,136 2.43997172,135.155145 1.2684423,133.681329 C0.0969128771,132.207514 -0.28668022,130.228107 0.216365302,128.252005 L2.39847187,119.679533 C3.35184671,115.933862 7.17824431,113 11.1095133,113 L97.8907325,113 C101.822001,113 105.647838,115.933862 106.601213,119.679533 L108.78388,128.252005 C109.286365,130.228658 108.903333,132.207514 107.731803,133.681329 C106.559152,135.155145 104.697828,136 102.623397,136 Z M11.1089525,117.406025 C9.24033796,117.406025 7.20348081,118.96741 6.75034727,120.747444 L4.56880146,129.319916 C4.40055886,129.980819 4.48391956,130.566821 4.80434119,130.969421 C5.12456291,131.372022 5.68200679,131.593975 6.37516629,131.593975 L102.622836,131.593975 C103.315996,131.593975 103.874,131.372573 104.194783,130.969421 C104.515078,130.566821 104.598565,129.98082 104.430323,129.319916 L102.247655,120.747444 C101.794522,118.96741 99.7582254,117.406025 97.8896108,117.406025 L11.1089525,117.406025 Z" id="形状" fill="#6E6E96"></path>
                    <path d="M48.6377773,78.0918106 C41.1203185,64.8116917 34,48.3598713 34,48.3598713 C38.3205926,60.7361374 43.4958265,74.5013333 43.4958264,90 L68.7283355,90 C68.7283355,90 84.5727647,16.9029616 55.231208,3.34517005 C55.231208,3.34517005 51.5255059,1.95737351 46.8280814,2.00100779 C64.3039449,7.7074638 71.1675889,28.9465872 63.4673553,64.4903848 C62.6995885,68.0389278 61.5578102,72.7361287 58.4889992,78.0906772 L48.6377773,78.0918106 Z" id="路径" fill="#AB5656" opacity="0.44"></path>
                    <path d="M66.3763774,93 L40.7765161,93 C39.5121823,93 38.4872372,91.9800476 38.4872372,90.7218725 C38.4872372,76.4636418 33.8588876,63.3968719 29.7748141,51.868977 C24.9575989,38.2696948 20.7968346,26.5248083 24.3034375,15.39046 C27.4294479,5.46579748 34.5599792,0 44.3815581,0 C49.3956512,0 53.3189029,1.43522039 53.483731,1.49616016 C53.5369567,1.51552418 53.5890379,1.53716642 53.6399742,1.56108688 C66.8611322,7.61293259 73.369552,24.6447835 72.9838086,52.1827892 C72.7005103,72.4097139 68.6536376,91.0220159 68.6124306,91.2076831 C68.3829733,92.2538136 67.4523792,93 66.3763774,93 L66.3763774,93 Z M43.0297388,88.443745 L64.5043195,88.443745 C65.4961497,83.3692158 68.18548,68.2168202 68.4063954,52.0705913 C68.6461974,34.5472343 65.958584,12.3053058 51.8165637,5.74202039 C51.3266579,5.57343891 48.2075154,4.55625504 44.3815581,4.55625504 C36.507011,4.55625504 31.2216383,8.65973219 28.6725263,16.7533498 C25.6214898,26.4405176 29.5470308,37.5224689 34.0929664,50.3545918 C38.0854688,61.6239192 42.5833296,74.3216325 43.0297388,88.443745 L43.0297388,88.443745 Z" id="形状" fill="#6E6E96"></path>
                    <path d="M48,21.9148937 C48,27.9427873 44.8657501,38 41,38 C37.1336667,38 34,27.9427872 34,21.9148937 C34,15.887 37.1336667,11 41,11 C44.8651666,11 48,15.8864256 48,21.9148937 Z" id="路径" fill="#FFABB0" opacity="0.65"></path>
                    <path d="M97.7275857,54 C97.1680778,54.000632 96.6341403,53.7380672 96.2564143,53.2765473 C95.8786883,52.8150275 95.6920208,52.1971302 95.7420845,51.5740391 C97.0601108,35.1700098 93.1329102,21.0400048 93.0930907,20.8991999 C92.7619692,19.7272948 93.3421501,18.4769306 94.3897139,18.1048105 C95.4374767,17.7331134 96.5563547,18.3814349 96.8888869,19.5529287 C97.0616041,20.1606709 101.100797,34.6412964 99.708607,51.972522 C99.6160066,53.1191702 98.7572656,53.9980489 97.7275857,54 L97.7275857,54 Z" id="路径" fill="#6E6E96" opacity="0.26"></path>
                    <path d="M9.74128616,66 C8.84422778,66 8.03191098,65.4705221 7.67129357,64.6499311 C7.41084967,64.0573006 1.29352438,49.9402786 1.00031321,32.2956942 C0.99034122,31.6970034 1.2188401,31.1188767 1.63554109,30.6884995 C2.05224209,30.2581222 2.62301001,30.0107499 3.22227842,30.0008033 C4.45613855,29.9675031 5.49847934,30.9738461 5.51938259,32.2206276 C5.7967751,48.9209542 11.7496987,62.6987658 11.8101488,62.8359176 C12.116095,63.5338622 12.049113,64.3388799 11.632017,64.9767792 C11.214921,65.6146785 10.5039588,65.9994351 9.74128616,66 Z" id="路径" fill="#6E6E96" opacity="0.26"></path>
                </g>
            </g>
        </g>
    </g>
</svg>