<?xml version="1.0" encoding="UTF-8"?>
<svg width="41px" height="41px" viewBox="0 0 41 41" version="1.1" xmlns="http://www.w3.org/2000/svg" xmlns:xlink="http://www.w3.org/1999/xlink">
    <title>钱包</title>
    <g id="页面-1" stroke="none" stroke-width="1" fill="none" fill-rule="evenodd">
        <g id="homepage" transform="translate(-1352.000000, -26.000000)" fill="#2D3548" fill-rule="nonzero">
            <g id="钱包" transform="translate(1352.000000, 26.000000)">
                <path d="M33.5454546,0 L7.45454545,0 C3.35454545,0 0,3.35454545 0,7.45454545 L0,33.5454546 C0,37.6454546 3.35454545,41 7.45454545,41 L33.5454546,41 C37.6454546,41 41,37.6454546 41,33.5454546 L41,7.45454545 C41,3.35454545 37.6454546,0 33.5454546,0 Z M37.2727273,26.0909091 L27.9545454,26.0909091 C24.8795454,26.0909091 22.3636364,23.575 22.3636364,20.5 C22.3636364,17.425 24.8795455,14.9090909 27.9545454,14.9090909 L37.2727273,14.9090909 L37.2727273,26.0909091 Z M27.9545454,11.1818182 C22.8295454,11.1818182 18.6363636,15.375 18.6363636,20.5 C18.6363636,25.625 22.8295454,29.8181818 27.9545454,29.8181818 L37.2727273,29.8181818 L37.2727273,33.5454546 C37.2727273,35.5954546 35.5954546,37.2727273 33.5454546,37.2727273 L7.45454545,37.2727273 C5.40454545,37.2727273 3.72727272,35.5954546 3.72727272,33.5454546 L3.72727272,7.45454545 C3.72727272,5.40454545 5.40454545,3.72727272 7.45454545,3.72727272 L33.5454546,3.72727272 C35.5954546,3.72727272 37.2727273,5.40454545 37.2727273,7.45454545 L37.2727273,11.1818182 L27.9545454,11.1818182 Z" id="形状"></path>
                <path d="M25,21 C25,22.6568542 26.3431458,24 28,24 C29.6568542,24 31,22.6568542 31,21 C31,19.3431458 29.6568542,18 28,18 C26.3431458,18 25,19.3431458 25,21 L25,21 Z" id="路径"></path>
            </g>
        </g>
    </g>
</svg>